<svg xmlns="http://www.w3.org/2000/svg" xmlns:xlink="http://www.w3.org/1999/xlink" viewBox="0,0,256,256" width="50px" height="50px"><g fill="#ffffff" fill-rule="nonzero" stroke="none" stroke-width="1" stroke-linecap="butt" stroke-linejoin="miter" stroke-miterlimit="10" stroke-dasharray="" stroke-dashoffset="0" font-family="none" font-weight="none" font-size="none" text-anchor="none" style="mix-blend-mode: normal"><g transform="scale(5.12,5.12)"><path d="M24.9668,1c-0.28251,0.00932 -0.54788,0.13775 -0.73047,0.35352l-2.98242,3.52148c-0.17486,0.20676 -0.2584,0.47559 -0.23152,0.74504c0.02687,0.26945 0.16186,0.51649 0.3741,0.68465l0.5957,0.47461v0.32617c-2.16736,0.12813 -4.1323,0.38616 -5.71484,0.77148c-1.14494,0.27877 -2.09591,0.60972 -2.8457,1.05664c-0.74979,0.44692 -1.43164,1.11311 -1.43164,2.0625c0,1.227 0.80674,2.09204 1.91992,2.97461c0.16273,0.12902 0.35418,0.24796 0.53516,0.37109c-3.80786,4.11014 -5.04761,9.6582 -9.45508,9.6582c-3,0 -4,-1 -4,-1c0,0 1,5.01953 6,5.01953c0.441,0 0.85672,-0.0255 1.26172,-0.0625c1.59,-0.272 3.46344,-1.10311 5.27344,-3.16211c0.363,-0.414 0.99611,-0.4558 1.41211,-0.0918c0.415,0.364 0.45384,0.99711 0.08984,1.41211c-2.78,3.164 -5.78878,3.93164 -8.05078,3.93164c-0.322,0 -0.62311,-0.01892 -0.91211,-0.04492c-0.318,1.294 -1.07422,4.62605 -1.07422,6.99805c0,5.865 2.33597,11.05664 10.16797,11.05664c3.928,0 5.45758,-1.95778 5.76758,-2.42578c-0.133,0.004 -0.2582,0.00781 -0.4082,0.00781c-1.936,0 -5.19656,-0.37837 -7.60156,-2.60937c-2.187,-2.03 -3.14842,-5.09256 -2.85742,-9.10156c0.04,-0.551 0.52431,-0.96583 1.07031,-0.92383c0.551,0.04 0.96383,0.51836 0.92383,1.06836c-0.244,3.368 0.50084,5.88642 2.21484,7.48242c1.917,1.786 4.66444,2.07912 6.27344,2.07812c0.149,-0.031 0.29427,-0.05575 0.44727,-0.09375c0.62289,0.2738 1.27743,0.56942 1.81641,0.78711c0.45941,0.18555 0.87094,0.34229 1.22266,0.45898c0.35172,0.1167 0.56052,0.2168 1,0.2168c0.42595,0 0.62026,-0.09697 0.94336,-0.20508c0.3231,-0.10811 0.69897,-0.25152 1.11523,-0.42187c0.56633,-0.23177 1.24416,-0.54056 1.90039,-0.83594c0.154,0.038 0.29827,0.06275 0.44727,0.09375c1.609,0.001 4.35744,-0.29212 6.27344,-2.07812c1.714,-1.597 2.45884,-4.11442 2.21484,-7.48242c-0.04,-0.551 0.37478,-1.02836 0.92578,-1.06836c0.546,-0.042 1.02836,0.37283 1.06836,0.92383c0.291,4.009 -0.66947,7.07056 -2.85547,9.10156c-2.404,2.231 -5.66556,2.60938 -7.60156,2.60938c-0.149,0 -0.27716,-0.00381 -0.41016,-0.00781c0.31,0.469 1.84153,2.42578 5.76953,2.42578c7.833,0 10.16602,-5.19164 10.16602,-11.05664c0,-2.372 -0.75527,-5.705 -1.07227,-7c-0.289,0.026 -0.59011,0.04492 -0.91211,0.04492c-2.262,0 -5.27273,-0.76764 -8.05273,-3.93164c-0.364,-0.415 -0.3232,-1.04616 0.0918,-1.41016c0.418,-0.363 1.05106,-0.3222 1.41406,0.0918c1.81,2.059 3.68244,2.89011 5.27344,3.16211c0.405,0.037 0.82072,0.0625 1.26172,0.0625c5,0 6,-5.01953 6,-5.01953c0,0 -1,1 -4,1c-4.41084,0 -5.65025,-5.55424 -9.46289,-9.66602c0.16578,-0.11236 0.34349,-0.22083 0.49414,-0.33789c0.57016,-0.44301 1.03313,-0.91118 1.375,-1.39649c0.3419,-0.4853 0.5957,-0.98152 0.5957,-1.60351c0,-0.94939 -0.68185,-1.61558 -1.43164,-2.0625c-0.74979,-0.44692 -1.70077,-0.77787 -2.8457,-1.05664c-1.58496,-0.38591 -3.55328,-0.64358 -5.72461,-0.77148v-0.32031l0.60938,-0.47266c0.21549,-0.16741 0.35322,-0.41561 0.38125,-0.68705c0.02803,-0.27144 -0.05607,-0.54254 -0.23281,-0.75045l-2.99414,-3.52344c-0.19754,-0.23223 -0.49021,-0.36167 -0.79492,-0.35156zM25.00195,3.54688l1.55273,1.82617l-0.16992,0.13281c-0.24374,0.18927 -0.38646,0.48046 -0.38672,0.78906v0.73828c-0.33474,-0.00628 -0.6563,-0.02344 -0.99805,-0.02344c-0.34509,0 -0.66987,0.01703 -1.00781,0.02344v-0.73828c0.0003,-0.30488 -0.13849,-0.59324 -0.37695,-0.7832l-0.16602,-0.13281zM25,9.00977c3.25103,0 6.19467,0.31059 8.24805,0.81055c1.02669,0.24998 1.83213,0.55502 2.29688,0.83203c0.46474,0.27702 0.45508,0.42014 0.45508,0.34375c0,-0.0505 -0.03423,0.16982 -0.23242,0.45117c-0.19819,0.28135 -0.52775,0.63109 -0.96484,0.9707c-0.3287,0.2554 -0.76856,0.48673 -1.20703,0.71289c-0.04129,-0.4481 -0.28759,-0.79082 -0.50195,-0.95703c-0.23187,-0.17978 -0.45775,-0.27952 -0.70703,-0.37305c-0.49857,-0.18706 -1.10026,-0.31969 -1.83008,-0.43555c-0.92903,-0.14748 -2.06978,-0.25058 -3.32031,-0.31055c-0.1239,-0.03063 -0.25251,-0.03726 -0.37891,-0.01953c-0.59886,-0.02341 -1.2143,-0.03906 -1.85742,-0.03906c-0.64241,0 -1.25722,0.01571 -1.85547,0.03906c-0.04788,-0.00674 -0.09618,-0.01001 -0.14453,-0.00976c-0.07574,0.00123 -0.15109,0.01106 -0.22461,0.0293c-1.25523,0.05984 -2.4001,0.1626 -3.33203,0.31055c-0.72982,0.11586 -1.33151,0.24849 -1.83008,0.43555c-0.24928,0.09353 -0.47516,0.19327 -0.70703,0.37305c-0.21749,0.16863 -0.47504,0.51192 -0.50977,0.9707c-0.45297,-0.23357 -0.89681,-0.4761 -1.23242,-0.74219c-0.84907,-0.67318 -1.16406,-1.50725 -1.16406,-1.40625c0,0.07639 -0.0097,-0.06673 0.45508,-0.34375c0.46474,-0.27702 1.27019,-0.58205 2.29688,-0.83203c2.05338,-0.49996 4.99702,-0.81055 8.24805,-0.81055zM25,12.99609c0.34182,0 0.66851,0.01039 0.99805,0.01758v0.99219c0.00014,0.21459 0.0693,0.42344 0.19727,0.5957l0.54297,0.73242l-1.73437,2.09375l-1.72852,-2.10156l0.53711,-0.74805c0.12096,-0.16859 0.18649,-0.37063 0.1875,-0.57812l0.00586,-0.98633c0.32831,-0.00713 0.65366,-0.01758 0.99414,-0.01758zM19.99805,22c0,0 1.53991,7.95508 9.25391,7.95508c0.002,0 -3.25195,-2.95508 -3.25195,-6.95508c0,0 3.23497,6.00523 7.04297,6.11523c0.551,2.009 0.95313,4.34477 0.95313,6.88477c0,1.23693 -0.54734,2.47528 -1.27734,3.58398c-0.01896,0.00932 -1.77733,0.87323 -3.66797,1.74414c-0.9504,0.4378 -1.92861,0.87434 -2.71289,1.19531c-0.39214,0.16048 -0.73654,0.29207 -0.99023,0.37695c-0.12612,0.0422 -0.24902,0.06721 -0.31836,0.08203c-0.07853,-0.01682 -0.21701,-0.04717 -0.36328,-0.0957c-0.28419,-0.09429 -0.66743,-0.23988 -1.10352,-0.41602c-0.87217,-0.35227 -1.96029,-0.8295 -3.01758,-1.30859c-1.65799,-0.75129 -2.61288,-1.2155 -3.21875,-1.50586c-0.75424,-1.12707 -1.32812,-2.39208 -1.32812,-3.65625c0,-8 4,-14 4,-14zM29.55664,30.00586c-0.42262,0.0365 -0.83734,0.18073 -1.21484,0.42773c-0.829,0.541 -1.32422,1.47944 -1.32422,2.52344c0.013,1.423 0.03687,1.53903 0.04688,1.58203c0.2,1.385 1.31066,2.41898 2.72266,2.45898c2.202,0 3.00195,-2.08337 3.00195,-3.48437c-0.001,-1.267 -0.20752,-2.53136 -1.72852,-3.19336l-0.24219,-0.10156c-0.409,-0.179 -0.83909,-0.24939 -1.26172,-0.21289zM20.4707,30.00781c-0.42225,-0.0365 -0.85141,0.03248 -1.25391,0.20898l-0.26172,0.10938c-1.509,0.657 -1.7168,1.9205 -1.7168,3.1875c0,1.401 0.79812,3.48438 3.07813,3.48438h0.00195c1.333,-0.04 2.44472,-1.07225 2.63672,-2.40625c0.019,-0.093 0.04264,-0.21081 0.05664,-1.63281v-0.00977c0.001,-1.034 -0.49522,-1.97462 -1.32422,-2.51562c-0.3795,-0.2475 -0.79455,-0.38928 -1.2168,-0.42578zM20,32c0.552,0 1,0.448 1,1c0,0.552 -0.448,1 -1,1c-0.552,0 -1,-0.448 -1,-1c0,-0.552 0.448,-1 1,-1zM30,32c0.552,0 1,0.448 1,1c0,0.552 -0.448,1 -1,1c-0.552,0 -1,-0.448 -1,-1c0,-0.552 0.448,-1 1,-1zM24,37c-0.553,0 -1,0.447 -1,1v0.23438c0,1.147 0.62472,2.76172 2.01172,2.76172c1.373,0 1.99023,-1.61372 1.99023,-2.76172v-0.23437c0,-0.553 -0.447,-1 -1,-1z"></path></g></g></svg>