<svg xmlns="http://www.w3.org/2000/svg" xmlns:xlink="http://www.w3.org/1999/xlink" viewBox="0,0,256,256" width="50px" height="50px"><g fill="#ffffff" fill-rule="nonzero" stroke="none" stroke-width="1" stroke-linecap="butt" stroke-linejoin="miter" stroke-miterlimit="10" stroke-dasharray="" stroke-dashoffset="0" font-family="none" font-weight="none" font-size="none" text-anchor="none" style="mix-blend-mode: normal"><g transform="scale(5.12,5.12)"><path d="M19.162,33.107h-6.893l-1.709,6.835h6.894zM15.361,38.94h-2.209l1.149,-4.625h2.209zM31.653,37.732l1.826,2.209h2.18l-2.71,-3.476l4.507,-3.358h-2.769l-2.298,1.708l0.412,-1.708h-2.327l-1.709,6.834h2.328zM4.609,36.642h2.209l-0.825,3.299h2.357l1.709,-6.834h-2.357l-0.56,2.268h-2.209l0.589,-2.268h-2.357l-1.708,6.834h2.356zM22.962,36.053l1.296,3.653l-0.059,0.235h2.357l1.709,-6.834h-2.357l-0.943,3.8l-1.296,-3.653l0.029,-0.147h-2.327l-1.708,6.834h2.327zM40.343,33.107l-4.419,6.835h2.563l0.707,-1.061h2.327l0.147,1.061h2.298l-1.002,-6.835zM39.96,37.673l1.119,-1.738l0.265,1.738zM46.382,33.107l-1.708,6.834h2.356l1.709,-6.834zM50,11.575c-0.2,0.684 -0.391,1.344 -0.585,2.003c-0.719,2.448 -1.436,4.896 -2.159,7.342c-0.429,1.453 -1.548,2.297 -3.063,2.299c-3.445,0.005 -6.89,0.008 -10.334,-0.007c-0.393,-0.002 -0.547,0.116 -0.656,0.499c-0.57,2.012 -1.188,4.011 -1.761,6.023c-0.1,0.35 -0.247,0.444 -0.597,0.441c-1.857,-0.018 -3.714,-0.008 -5.641,-0.008c0.279,-0.965 0.538,-1.876 0.805,-2.784c0.96,-3.263 1.918,-6.527 2.895,-9.785c0.099,-0.329 0.021,-0.485 -0.251,-0.655c-0.541,-0.339 -1.06,-0.714 -1.686,-1.14c2.908,0 5.692,0 8.564,0c-0.414,1.421 -0.819,2.813 -1.234,4.242c0.165,0.015 0.296,0.038 0.427,0.038c1.893,0.002 3.786,-0.012 5.679,0.009c0.693,0.008 1.181,-0.289 1.389,-0.908c0.49,-1.461 0.92,-2.943 1.392,-4.473c-9.247,0 -18.417,0 -27.642,0c0.317,-1.073 0.62,-2.097 0.927,-3.135c11.168,-0.001 22.317,-0.001 33.531,-0.001zM12.734,19.417c0.779,-2.651 1.537,-5.234 2.296,-7.82c-2.832,0 -5.606,0 -8.477,0c0.61,0.413 1.121,0.781 1.655,1.113c0.302,0.188 0.402,0.36 0.282,0.737c-0.425,1.328 -0.799,2.671 -1.193,4.009c-0.499,1.694 -0.997,3.387 -1.512,5.134c4.325,0 8.598,0 12.926,0c-0.323,1.112 -0.649,2.165 -0.929,3.229c-0.113,0.428 -0.292,0.578 -0.761,0.576c-4.552,-0.027 -9.105,-0.026 -13.658,-0.017c-0.222,0 -0.527,0.085 -0.653,0.243c-0.903,1.129 -1.769,2.288 -2.71,3.52c0.205,0.012 0.318,0.024 0.432,0.024c6.548,0.001 13.095,0.003 19.643,-0.001c1.486,-0.001 2.602,-0.837 3.033,-2.271c0.596,-1.987 1.172,-3.98 1.758,-5.97c0.238,-0.811 0.478,-1.621 0.739,-2.506c-4.323,0 -8.572,0 -12.871,0zM41.443,24.54c-0.117,-0.139 -0.373,-0.223 -0.566,-0.226c-1.567,-0.018 -3.135,-0.01 -4.703,-0.01c-0.485,0 -0.97,0 -1.542,0c0.158,0.211 0.255,0.344 0.355,0.474c1.093,1.414 2.251,2.784 3.256,4.258c0.619,0.907 1.312,1.219 2.391,1.162c1.831,0 3.57,-0.026 5.403,-0.026c-0.035,-0.114 -0.036,-0.151 -0.055,-0.174c-1.509,-1.822 -3.014,-3.649 -4.539,-5.458z"></path></g></g></svg>