<svg xmlns="http://www.w3.org/2000/svg" xmlns:xlink="http://www.w3.org/1999/xlink" viewBox="0,0,256,256" width="64px" height="64px"><g fill="#ffffff" fill-rule="nonzero" stroke="none" stroke-width="1" stroke-linecap="butt" stroke-linejoin="miter" stroke-miterlimit="10" stroke-dasharray="" stroke-dashoffset="0" font-family="none" font-weight="none" font-size="none" text-anchor="none" style="mix-blend-mode: normal"><g transform="scale(4,4)"><path d="M16,8c-4.418,0 -8,3.582 -8,8v17.40234l10.65625,3.73828c1.463,-1.906 3.75575,-3.14062 6.34375,-3.14062c0.182,0 0.36006,0.01534 0.53906,0.02734l3.52148,-6.33789c-0.04,-0.391 -0.06055,-0.78745 -0.06055,-1.18945c0,-6.351 5.149,-11.5 11.5,-11.5c6.351,0 11.5,5.149 11.5,11.5c0,6.351 -5.149,11.5 -11.5,11.5c-0.629,0 -1.2408,-0.06316 -1.8418,-0.16016l-5.6875,3.55469c0.014,0.201 0.0293,0.40047 0.0293,0.60547c0,4.418 -3.582,8 -8,8c-4.418,0 -8,-3.582 -8,-8c0,-0.258 0.01506,-0.51167 0.03906,-0.76367l-9.03906,-4.32422v11.08789c0,4.418 3.582,8 8,8h32c4.418,0 8,-3.582 8,-8v-32c0,-4.418 -3.582,-8 -8,-8zM40.5,19c-4.142,0 -7.5,3.358 -7.5,7.5c0,4.142 3.358,7.5 7.5,7.5c4.142,0 7.5,-3.358 7.5,-7.5c0,-4.142 -3.358,-7.5 -7.5,-7.5zM40.5,23c1.933,0 3.5,1.567 3.5,3.5c0,1.933 -1.567,3.5 -3.5,3.5c-1.933,0 -3.5,-1.567 -3.5,-3.5c0,-1.933 1.567,-3.5 3.5,-3.5zM25,37c-1.246,0 -2.37009,0.47256 -3.24609,1.22656l3.43555,1.20508c1.077,0.338 1.81055,1.33584 1.81055,2.46484c0,1.902 -1.98517,3.15498 -3.70117,2.33398l-3.22852,-1.54492c0.336,2.434 2.40269,4.31445 4.92969,4.31445c2.761,0 5,-2.239 5,-5c0,-2.761 -2.239,-5 -5,-5z"></path></g></g></svg>